<?xml version="1.0" encoding="UTF-8" standalone="no"?>
<svg
   xmlns:dc="http://purl.org/dc/elements/1.1/"
   xmlns:cc="http://creativecommons.org/ns#"
   xmlns:rdf="http://www.w3.org/1999/02/22-rdf-syntax-ns#"
   xmlns:svg="http://www.w3.org/2000/svg"
   xmlns="http://www.w3.org/2000/svg"
   width="128"
   height="128"
   viewBox="0 0 33.866666 33.866668"
   version="1.1"
   id="svg857">
  <defs
     id="defs851" />
  <metadata
     id="metadata854">
    <rdf:RDF>
      <cc:Work
         rdf:about="">
        <dc:format>image/svg+xml</dc:format>
        <dc:type
           rdf:resource="http://purl.org/dc/dcmitype/StillImage" />
        <dc:title></dc:title>
      </cc:Work>
    </rdf:RDF>
  </metadata>
  <g
     id="layer1" />
  <g
     id="path4680-4-1-4"
     style="opacity:1">
    <path
       style="color:#000000;font-style:normal;font-variant:normal;font-weight:normal;font-stretch:normal;font-size:medium;line-height:normal;font-family:sans-serif;font-variant-ligatures:normal;font-variant-position:normal;font-variant-caps:normal;font-variant-numeric:normal;font-variant-alternates:normal;font-variant-east-asian:normal;font-feature-settings:normal;font-variation-settings:normal;text-indent:0;text-align:start;text-decoration:none;text-decoration-line:none;text-decoration-style:solid;text-decoration-color:#000000;letter-spacing:normal;word-spacing:normal;text-transform:none;writing-mode:lr-tb;direction:ltr;text-orientation:mixed;dominant-baseline:auto;baseline-shift:baseline;text-anchor:start;white-space:normal;shape-padding:0;shape-margin:0;inline-size:0;clip-rule:nonzero;display:inline;overflow:visible;visibility:visible;isolation:auto;mix-blend-mode:normal;color-interpolation:sRGB;color-interpolation-filters:linearRGB;solid-color:#000000;solid-opacity:1;vector-effect:none;fill:#000000;fill-opacity:1;fill-rule:nonzero;stroke:none;stroke-linecap:round;stroke-linejoin:round;stroke-miterlimit:4;stroke-dasharray:none;stroke-dashoffset:0;stroke-opacity:1;paint-order:normal;color-rendering:auto;image-rendering:auto;shape-rendering:auto;text-rendering:auto;enable-background:accumulate;stop-color:#000000;stop-opacity:1"
       d="m 17.113774,31.694325 a 1.0001,1.0001 0 0 0 0.876953,-0.585937 L 22.576665,21.032217 27.158696,10.956045 A 1.0001,1.0001 0 0 0 26.09229,9.5556537 L 20.627446,10.420889 19.787602,3.1708888 A 1.0001,1.0001 0 0 0 18.793461,2.2861227 h -3.658203 a 1.0001,1.0001 0 0 0 -0.996093,0.910156 L 13.504399,10.364248 8.0590864,9.5537003 A 1.0001,1.0001 0 0 0 7.0004932,10.956045 l 4.5839838,10.076171 4.585938,10.076172 a 1.0001,1.0001 0 0 0 0.943359,0.585937 z m -0.0332,-3.414061 -3.675782,-8.076173 -3.8203116,-8.400391 4.6757806,0.695314 a 1.0001,1.0001 0 0 0 1.142578,-0.900391 l 0.648438,-7.3125003 1.851562,-1e-7 0.857422,7.4003904 a 1.0001,1.0001 0 0 0 1.150391,0.871094 l 4.658203,-0.736328 -3.8125,8.382813 z"
       id="path844" />
  </g>
</svg>
