<?xml version="1.0" encoding="UTF-8" standalone="no"?>
<svg
   xmlns:dc="http://purl.org/dc/elements/1.1/"
   xmlns:cc="http://creativecommons.org/ns#"
   xmlns:rdf="http://www.w3.org/1999/02/22-rdf-syntax-ns#"
   xmlns:svg="http://www.w3.org/2000/svg"
   xmlns="http://www.w3.org/2000/svg"
   width="128"
   height="128"
   viewBox="0 0 33.866666 33.866668"
   version="1.1"
   id="svg857">
  <defs
     id="defs851" />
  <metadata
     id="metadata854">
    <rdf:RDF>
      <cc:Work
         rdf:about="">
        <dc:format>image/svg+xml</dc:format>
        <dc:type
           rdf:resource="http://purl.org/dc/dcmitype/StillImage" />
        <dc:title></dc:title>
      </cc:Work>
    </rdf:RDF>
  </metadata>
  <g
     id="layer1" />
  <g
     id="path4680-4-1-4"
     style="opacity:1">
    <path
       style="color:#000000;font-style:normal;font-variant:normal;font-weight:normal;font-stretch:normal;font-size:medium;line-height:normal;font-family:sans-serif;font-variant-ligatures:normal;font-variant-position:normal;font-variant-caps:normal;font-variant-numeric:normal;font-variant-alternates:normal;font-variant-east-asian:normal;font-feature-settings:normal;font-variation-settings:normal;text-indent:0;text-align:start;text-decoration:none;text-decoration-line:none;text-decoration-style:solid;text-decoration-color:#000000;letter-spacing:normal;word-spacing:normal;text-transform:none;writing-mode:lr-tb;direction:ltr;text-orientation:mixed;dominant-baseline:auto;baseline-shift:baseline;text-anchor:start;white-space:normal;shape-padding:0;shape-margin:0;inline-size:0;clip-rule:nonzero;display:inline;overflow:visible;visibility:visible;isolation:auto;mix-blend-mode:normal;color-interpolation:sRGB;color-interpolation-filters:linearRGB;solid-color:#000000;solid-opacity:1;vector-effect:none;fill:#000000;fill-opacity:1;fill-rule:nonzero;stroke:none;stroke-linecap:round;stroke-linejoin:round;stroke-miterlimit:4;stroke-dasharray:none;stroke-dashoffset:0;stroke-opacity:1;paint-order:normal;color-rendering:auto;image-rendering:auto;shape-rendering:auto;text-rendering:auto;enable-background:accumulate;stop-color:#000000;stop-opacity:1"
       d="m 31.733477,17.13961 a 1.0001,1.0001 0 0 1 -0.585938,0.876952 L 21.071367,22.602501 10.995195,27.184532 A 1.0001,1.0001 0 0 1 9.5948039,26.118125 L 10.460039,20.653282 3.2100394,19.813438 a 1.0001,1.0001 0 0 1 -0.884766,-0.994142 l -4e-7,-3.658202 A 1.0001,1.0001 0 0 1 3.2354293,14.165001 L 10.403398,13.530236 9.5928509,8.0849222 A 1.0001,1.0001 0 0 1 10.995195,7.0263298 l 10.076172,4.5839832 10.076173,4.585938 a 1.0001,1.0001 0 0 1 0.585937,0.943359 z m -3.414062,-0.0332 -8.076173,-3.675781 -8.40039,-3.8203128 0.695312,4.6757808 a 1.0001,1.0001 0 0 1 -0.900391,1.142575 l -7.3124997,0.648438 -4e-7,1.851562 7.4003921,0.857421 a 1.0001,1.0001 0 0 1 0.871092,1.150391 l -0.736328,4.658203 8.382814,-3.812499 z"
       id="path844" />
  </g>
</svg>
