<?xml version="1.0" encoding="UTF-8" standalone="no"?>
<svg
   xmlns:dc="http://purl.org/dc/elements/1.1/"
   xmlns:cc="http://creativecommons.org/ns#"
   xmlns:rdf="http://www.w3.org/1999/02/22-rdf-syntax-ns#"
   xmlns:svg="http://www.w3.org/2000/svg"
   xmlns="http://www.w3.org/2000/svg"
   width="128"
   height="128"
   viewBox="0 0 33.866666 33.866668"
   version="1.1"
   id="svg857">
  <defs
     id="defs851" />
  <metadata
     id="metadata854">
    <rdf:RDF>
      <cc:Work
         rdf:about="">
        <dc:format>image/svg+xml</dc:format>
        <dc:type
           rdf:resource="http://purl.org/dc/dcmitype/StillImage" />
        <dc:title></dc:title>
      </cc:Work>
    </rdf:RDF>
  </metadata>
  <g
     id="layer1" />
  <g
     id="path4680-4-1-4"
     style="opacity:1">
    <path
       style="color:#000000;font-style:normal;font-variant:normal;font-weight:normal;font-stretch:normal;font-size:medium;line-height:normal;font-family:sans-serif;font-variant-ligatures:normal;font-variant-position:normal;font-variant-caps:normal;font-variant-numeric:normal;font-variant-alternates:normal;font-variant-east-asian:normal;font-feature-settings:normal;font-variation-settings:normal;text-indent:0;text-align:start;text-decoration:none;text-decoration-line:none;text-decoration-style:solid;text-decoration-color:#000000;letter-spacing:normal;word-spacing:normal;text-transform:none;writing-mode:lr-tb;direction:ltr;text-orientation:mixed;dominant-baseline:auto;baseline-shift:baseline;text-anchor:start;white-space:normal;shape-padding:0;shape-margin:0;inline-size:0;clip-rule:nonzero;display:inline;overflow:visible;visibility:visible;isolation:auto;mix-blend-mode:normal;color-interpolation:sRGB;color-interpolation-filters:linearRGB;solid-color:#000000;solid-opacity:1;vector-effect:none;fill:#000000;fill-opacity:1;fill-rule:nonzero;stroke:none;stroke-linecap:round;stroke-linejoin:round;stroke-miterlimit:4;stroke-dasharray:none;stroke-dashoffset:0;stroke-opacity:1;paint-order:normal;color-rendering:auto;image-rendering:auto;shape-rendering:auto;text-rendering:auto;enable-background:accumulate;stop-color:#000000;stop-opacity:1"
       d="m 2.2304085,16.823766 a 1.0001,1.0001 0 0 1 0.585937,-0.876953 L 12.892518,11.360875 22.96869,6.7788443 a 1.0001,1.0001 0 0 1 1.400391,1.066407 l -0.865235,5.4648427 7.25,0.839844 a 1.0001,1.0001 0 0 1 0.884766,0.994141 v 3.658203 a 1.0001,1.0001 0 0 1 -0.910156,0.996093 l -7.167969,0.634766 0.810547,5.445313 A 1.0001,1.0001 0 0 1 22.96869,26.937047 L 12.892518,22.353063 2.8163455,17.767125 a 1.0001,1.0001 0 0 1 -0.585937,-0.943359 z m 3.414062,0.0332 8.0761725,3.675782 8.400391,3.820312 -0.695313,-4.675781 a 1.0001,1.0001 0 0 1 0.900391,-1.142575 l 7.3125,-0.648438 v -1.851562 l -7.400391,-0.857422 a 1.0001,1.0001 0 0 1 -0.871093,-1.150391 l 0.736328,-4.6582027 -8.382813,3.8124997 z"
       id="path844" />
  </g>
</svg>
