<?xml version="1.0" encoding="UTF-8" standalone="no"?>
<svg
   xmlns:dc="http://purl.org/dc/elements/1.1/"
   xmlns:cc="http://creativecommons.org/ns#"
   xmlns:rdf="http://www.w3.org/1999/02/22-rdf-syntax-ns#"
   xmlns:svg="http://www.w3.org/2000/svg"
   xmlns="http://www.w3.org/2000/svg"
   width="128"
   height="128"
   viewBox="0 0 33.866666 33.866668"
   version="1.1"
   id="svg857">
  <defs
     id="defs851" />
  <metadata
     id="metadata854">
    <rdf:RDF>
      <cc:Work
         rdf:about="">
        <dc:format>image/svg+xml</dc:format>
        <dc:type
           rdf:resource="http://purl.org/dc/dcmitype/StillImage" />
        <dc:title></dc:title>
      </cc:Work>
    </rdf:RDF>
  </metadata>
  <g
     id="layer1" />
  <g
     id="path4680-4-1-4"
     style="opacity:1">
    <path
       style="color:#000000;font-style:normal;font-variant:normal;font-weight:normal;font-stretch:normal;font-size:medium;line-height:normal;font-family:sans-serif;font-variant-ligatures:normal;font-variant-position:normal;font-variant-caps:normal;font-variant-numeric:normal;font-variant-alternates:normal;font-variant-east-asian:normal;font-feature-settings:normal;font-variation-settings:normal;text-indent:0;text-align:start;text-decoration:none;text-decoration-line:none;text-decoration-style:solid;text-decoration-color:#000000;letter-spacing:normal;word-spacing:normal;text-transform:none;writing-mode:lr-tb;direction:ltr;text-orientation:mixed;dominant-baseline:auto;baseline-shift:baseline;text-anchor:start;white-space:normal;shape-padding:0;shape-margin:0;inline-size:0;clip-rule:nonzero;display:inline;overflow:visible;visibility:visible;isolation:auto;mix-blend-mode:normal;color-interpolation:sRGB;color-interpolation-filters:linearRGB;solid-color:#000000;solid-opacity:1;vector-effect:none;fill:#000000;fill-opacity:1;fill-rule:nonzero;stroke:none;stroke-linecap:round;stroke-linejoin:round;stroke-miterlimit:4;stroke-dasharray:none;stroke-dashoffset:0;stroke-opacity:1.0;paint-order:normal;color-rendering:auto;image-rendering:auto;shape-rendering:auto;text-rendering:auto;enable-background:accumulate;stop-color:#000000;stop-opacity:1;"
       d="M 17.126953 2.1542969 A 1.0001 1.0001 0 0 0 16.25 2.7402344 L 11.664062 12.816406 L 7.0820312 22.892578 A 1.0001 1.0001 0 0 0 8.1484375 24.292969 L 13.613281 23.427734 L 14.453125 30.677734 A 1.0001 1.0001 0 0 0 15.447266 31.5625 L 19.105469 31.5625 A 1.0001 1.0001 0 0 0 20.101562 30.652344 L 20.736328 23.484375 L 26.181641 24.294922 A 1.0001 1.0001 0 0 0 27.240234 22.892578 L 22.65625 12.816406 L 18.070312 2.7402344 A 1.0001 1.0001 0 0 0 17.126953 2.1542969 z M 17.160156 5.5683594 L 20.835938 13.644531 L 24.65625 22.044922 L 19.980469 21.349609 A 1.0001 1.0001 0 0 0 18.837891 22.25 L 18.189453 29.5625 L 16.337891 29.5625 L 15.480469 22.162109 A 1.0001 1.0001 0 0 0 14.330078 21.291016 L 9.671875 22.027344 L 13.484375 13.644531 L 17.160156 5.5683594 z "
       id="path844" />
  </g>
</svg>
