<?xml version="1.0" encoding="UTF-8" standalone="no"?>
<svg
   xmlns:dc="http://purl.org/dc/elements/1.1/"
   xmlns:cc="http://creativecommons.org/ns#"
   xmlns:rdf="http://www.w3.org/1999/02/22-rdf-syntax-ns#"
   xmlns:svg="http://www.w3.org/2000/svg"
   xmlns="http://www.w3.org/2000/svg"
   width="128"
   height="128"
   viewBox="0 0 33.866666 33.866668"
   version="1.1"
   id="svg3486">
  <defs
     id="defs3480" />
  <metadata
     id="metadata3483">
    <rdf:RDF>
      <cc:Work
         rdf:about="">
        <dc:format>image/svg+xml</dc:format>
        <dc:type
           rdf:resource="http://purl.org/dc/dcmitype/StillImage" />
        <dc:title></dc:title>
      </cc:Work>
    </rdf:RDF>
  </metadata>
  <path
     style="color:#000000;font-style:normal;font-variant:normal;font-weight:normal;font-stretch:normal;font-size:medium;line-height:normal;font-family:sans-serif;font-variant-ligatures:normal;font-variant-position:normal;font-variant-caps:normal;font-variant-numeric:normal;font-variant-alternates:normal;font-variant-east-asian:normal;font-feature-settings:normal;font-variation-settings:normal;text-indent:0;text-align:start;text-decoration:none;text-decoration-line:none;text-decoration-style:solid;text-decoration-color:#000000;letter-spacing:normal;word-spacing:normal;text-transform:none;writing-mode:lr-tb;direction:ltr;text-orientation:mixed;dominant-baseline:auto;baseline-shift:baseline;text-anchor:start;white-space:normal;shape-padding:0;shape-margin:0;inline-size:0;clip-rule:nonzero;display:inline;overflow:visible;visibility:visible;isolation:auto;mix-blend-mode:normal;color-interpolation:sRGB;color-interpolation-filters:linearRGB;solid-color:#000000;solid-opacity:1;vector-effect:none;fill:#000000;fill-opacity:1;fill-rule:nonzero;stroke:none;stroke-linecap:round;stroke-linejoin:round;stroke-miterlimit:4;stroke-dasharray:none;stroke-dashoffset:0;stroke-opacity:1;paint-order:normal;color-rendering:auto;image-rendering:auto;shape-rendering:auto;text-rendering:auto;enable-background:accumulate;stop-color:#000000;stop-opacity:1;opacity:1"
     d="M 8.4511719 2.5859375 C 8.0020262 2.5859375 7.5755169 2.7166629 7.2207031 2.9882812 C 6.8658893 3.2598996 6.5703125 3.7226538 6.5703125 4.2597656 L 6.5703125 25.058594 C 6.5703125 25.337813 6.6444733 25.79143 6.921875 26.119141 C 7.1992767 26.446851 7.4842573 26.561927 7.7734375 26.689453 A 1 1 0 0 0 9.0917969 26.177734 A 1 1 0 0 0 8.5800781 24.859375 C 8.5644601 24.852488 8.5838638 24.863856 8.5703125 24.857422 L 8.5703125 4.5859375 L 25.080078 4.5859375 L 25.080078 24.730469 L 22.080078 24.730469 A 1 1 0 0 0 21.080078 25.730469 A 1 1 0 0 0 22.080078 26.730469 L 25.199219 26.730469 C 25.648364 26.730469 26.074874 26.599743 26.429688 26.328125 C 26.784501 26.056507 27.080078 25.595706 27.080078 25.058594 L 27.080078 4.2597656 C 27.080078 3.7226409 26.784496 3.2598963 26.429688 2.9882812 C 26.074879 2.7166662 25.64837 2.5859375 25.199219 2.5859375 L 8.4511719 2.5859375 z "
     id="rect4574-2-9-8" />
  <path
     style="color:#000000;font-style:normal;font-variant:normal;font-weight:normal;font-stretch:normal;font-size:medium;line-height:normal;font-family:sans-serif;font-variant-ligatures:normal;font-variant-position:normal;font-variant-caps:normal;font-variant-numeric:normal;font-variant-alternates:normal;font-variant-east-asian:normal;font-feature-settings:normal;font-variation-settings:normal;text-indent:0;text-align:start;text-decoration:none;text-decoration-line:none;text-decoration-style:solid;text-decoration-color:#000000;letter-spacing:normal;word-spacing:normal;text-transform:none;writing-mode:lr-tb;direction:ltr;text-orientation:mixed;dominant-baseline:auto;baseline-shift:baseline;text-anchor:start;white-space:normal;shape-padding:0;shape-margin:0;inline-size:0;clip-rule:nonzero;display:inline;overflow:visible;visibility:visible;isolation:auto;mix-blend-mode:normal;color-interpolation:sRGB;color-interpolation-filters:linearRGB;solid-color:#000000;solid-opacity:1;vector-effect:none;fill:#000000;fill-opacity:1;fill-rule:nonzero;stroke:none;stroke-linecap:round;stroke-linejoin:round;stroke-miterlimit:4;stroke-dasharray:none;stroke-dashoffset:0;stroke-opacity:1;paint-order:normal;color-rendering:auto;image-rendering:auto;shape-rendering:auto;text-rendering:auto;enable-background:accumulate;stop-color:#000000;stop-opacity:1;opacity:1"
     d="M 8.7089844 0.52148438 C 7.67708 0.52148438 6.8867187 1.41627 6.8867188 2.4023438 L 6.8867188 22.294922 C 6.8867188 23.280996 7.67708 24.175781 8.7089844 24.175781 L 22.310547 24.175781 C 23.342451 24.175781 24.130859 23.280996 24.130859 22.294922 L 24.130859 2.4023438 C 24.130859 1.41627 23.342451 0.52148438 22.310547 0.52148438 L 8.7089844 0.52148438 z M 8.9394531 2.5742188 L 22.080078 2.5742188 L 22.080078 22.123047 L 8.9394531 22.123047 L 8.9394531 2.5742188 z "
     id="rect4574-2-8-9-2"
     transform="matrix(0.95008418,0.31199366,0,1,0,0)" />
  <g
     id="path4845-1-2"
     style="opacity:1">
    <path
       style="color:#000000;font-style:normal;font-variant:normal;font-weight:normal;font-stretch:normal;font-size:medium;line-height:normal;font-family:sans-serif;font-variant-ligatures:normal;font-variant-position:normal;font-variant-caps:normal;font-variant-numeric:normal;font-variant-alternates:normal;font-variant-east-asian:normal;font-feature-settings:normal;font-variation-settings:normal;text-indent:0;text-align:start;text-decoration:none;text-decoration-line:none;text-decoration-style:solid;text-decoration-color:#000000;letter-spacing:normal;word-spacing:normal;text-transform:none;writing-mode:lr-tb;direction:ltr;text-orientation:mixed;dominant-baseline:auto;baseline-shift:baseline;text-anchor:start;white-space:normal;shape-padding:0;shape-margin:0;inline-size:0;clip-rule:nonzero;display:inline;overflow:visible;visibility:visible;isolation:auto;mix-blend-mode:normal;color-interpolation:sRGB;color-interpolation-filters:linearRGB;solid-color:#000000;solid-opacity:1;vector-effect:none;fill:#000000;fill-opacity:1;fill-rule:nonzero;stroke:none;stroke-linecap:round;stroke-linejoin:round;stroke-miterlimit:4;stroke-dasharray:none;stroke-dashoffset:0;stroke-opacity:1;paint-order:normal;color-rendering:auto;image-rendering:auto;shape-rendering:auto;text-rendering:auto;enable-background:accumulate;stop-color:#000000;stop-opacity:1"
       d="m 17.964844,16.927734 c -1.001525,0 -1.6875,0.884707 -1.6875,1.791016 0,0.906309 0.685975,1.791016 1.6875,1.791016 1.001525,0 1.6875,-0.884707 1.6875,-1.791016 0,-0.906309 -0.685975,-1.791016 -1.6875,-1.791016 z"
       id="path849" />
  </g>
</svg>
