<?xml version="1.0" encoding="UTF-8" standalone="no"?>
<svg
   xmlns:dc="http://purl.org/dc/elements/1.1/"
   xmlns:cc="http://creativecommons.org/ns#"
   xmlns:rdf="http://www.w3.org/1999/02/22-rdf-syntax-ns#"
   xmlns:svg="http://www.w3.org/2000/svg"
   xmlns="http://www.w3.org/2000/svg"
   width="128"
   height="128"
   viewBox="0 0 33.866666 33.866668"
   version="1.1"
   id="svg857">
  <defs
     id="defs851" />
  <metadata
     id="metadata854">
    <rdf:RDF>
      <cc:Work
         rdf:about="">
        <dc:format>image/svg+xml</dc:format>
        <dc:type
           rdf:resource="http://purl.org/dc/dcmitype/StillImage" />
        <dc:title></dc:title>
      </cc:Work>
    </rdf:RDF>
  </metadata>
  <g
     id="layer1" />
  <g
     id="g2286"
     transform="matrix(4.3613773,0,0,4.1596337,-953.89742,-358.7988)"
     style="stroke-width:0.469559;stroke-miterlimit:4;stroke-dasharray:none">
    <path
       style="color:#000000;font-style:normal;font-variant:normal;font-weight:normal;font-stretch:normal;font-size:medium;line-height:normal;font-family:sans-serif;font-variant-ligatures:normal;font-variant-position:normal;font-variant-caps:normal;font-variant-numeric:normal;font-variant-alternates:normal;font-variant-east-asian:normal;font-feature-settings:normal;font-variation-settings:normal;text-indent:0;text-align:start;text-decoration:none;text-decoration-line:none;text-decoration-style:solid;text-decoration-color:#000000;letter-spacing:normal;word-spacing:normal;text-transform:none;writing-mode:lr-tb;direction:ltr;text-orientation:mixed;dominant-baseline:auto;baseline-shift:baseline;text-anchor:start;white-space:normal;shape-padding:0;shape-margin:0;inline-size:0;clip-rule:nonzero;display:inline;overflow:visible;visibility:visible;isolation:auto;mix-blend-mode:normal;color-interpolation:sRGB;color-interpolation-filters:linearRGB;solid-color:#000000;solid-opacity:1;vector-effect:none;fill:#000000;fill-opacity:1;fill-rule:nonzero;stroke:none;stroke-width:0.469559;stroke-linecap:round;stroke-linejoin:round;stroke-miterlimit:4;stroke-dasharray:none;stroke-dashoffset:0;stroke-opacity:1;color-rendering:auto;image-rendering:auto;shape-rendering:auto;text-rendering:auto;enable-background:accumulate;stop-color:#000000"
       d="m 220.85871,88.763181 a 0.22930654,0.24043117 29.986089 0 0 -0.0912,0.325843 l 1.00963,1.833539 a 0.22930654,0.24043117 29.986089 0 0 0.31473,0.08011 l 1.80309,-1.091504 a 0.22930654,0.24043117 29.986089 0 0 0.0912,-0.325848 l -1.00963,-1.833538 a 0.22930654,0.24043117 29.986089 0 0 -0.31475,-0.0801 z m 0.42652,0.283076 1.39714,-0.845762 0.78609,1.427588 -1.39714,0.845762 z"
       id="rect4563-4" />
    <path
       style="color:#000000;font-style:normal;font-variant:normal;font-weight:normal;font-stretch:normal;font-size:medium;line-height:normal;font-family:sans-serif;font-variant-ligatures:normal;font-variant-position:normal;font-variant-caps:normal;font-variant-numeric:normal;font-variant-alternates:normal;font-variant-east-asian:normal;font-feature-settings:normal;font-variation-settings:normal;text-indent:0;text-align:start;text-decoration:none;text-decoration-line:none;text-decoration-style:solid;text-decoration-color:#000000;letter-spacing:normal;word-spacing:normal;text-transform:none;writing-mode:lr-tb;direction:ltr;text-orientation:mixed;dominant-baseline:auto;baseline-shift:baseline;text-anchor:start;white-space:normal;shape-padding:0;shape-margin:0;inline-size:0;clip-rule:nonzero;display:inline;overflow:visible;visibility:visible;isolation:auto;mix-blend-mode:normal;color-interpolation:sRGB;color-interpolation-filters:linearRGB;solid-color:#000000;solid-opacity:1;vector-effect:none;fill:#000000;fill-opacity:1;fill-rule:nonzero;stroke:none;stroke-width:0.469559;stroke-linecap:round;stroke-linejoin:round;stroke-miterlimit:4;stroke-dasharray:none;stroke-dashoffset:0;stroke-opacity:1;color-rendering:auto;image-rendering:auto;shape-rendering:auto;text-rendering:auto;enable-background:accumulate;stop-color:#000000"
       d="m 220.34668,88.128182 c -0.24377,0.147566 -0.33319,0.472068 -0.19896,0.715836 l 0.12294,0.223271 c 0.13423,0.243767 0.44604,0.323128 0.68981,0.175562 l 2.04666,-1.23895 c 0.24377,-0.147566 0.33581,-0.4714 0.20158,-0.715167 l -0.12294,-0.223272 c -0.13423,-0.243767 -0.44866,-0.323796 -0.69243,-0.17623 z m 0.22353,0.405949 2.04667,-1.23895 c 0.0255,-0.01547 0.0472,-0.0085 0.0612,0.01705 l 0.12294,0.223272 c 0.014,0.02551 0.008,0.04703 -0.0175,0.06244 l -2.04666,1.23895 c -0.0256,0.01547 -0.0463,0.01015 -0.0603,-0.01536 l -0.12294,-0.223272 c -0.0141,-0.02551 -0.009,-0.04872 0.0165,-0.06413 z"
       id="rect4563-7-3" />
    <path
       style="color:#000000;font-style:normal;font-variant:normal;font-weight:normal;font-stretch:normal;font-size:medium;line-height:normal;font-family:sans-serif;font-variant-ligatures:normal;font-variant-position:normal;font-variant-caps:normal;font-variant-numeric:normal;font-variant-alternates:normal;font-variant-east-asian:normal;font-feature-settings:normal;font-variation-settings:normal;text-indent:0;text-align:start;text-decoration:none;text-decoration-line:none;text-decoration-style:solid;text-decoration-color:#000000;letter-spacing:normal;word-spacing:normal;text-transform:none;writing-mode:lr-tb;direction:ltr;text-orientation:mixed;dominant-baseline:auto;baseline-shift:baseline;text-anchor:start;white-space:normal;shape-padding:0;shape-margin:0;inline-size:0;clip-rule:nonzero;display:inline;overflow:visible;visibility:visible;isolation:auto;mix-blend-mode:normal;color-interpolation:sRGB;color-interpolation-filters:linearRGB;solid-color:#000000;solid-opacity:1;vector-effect:none;fill:#000000;fill-opacity:1;fill-rule:nonzero;stroke:none;stroke-width:0.469559;stroke-linecap:round;stroke-linejoin:round;stroke-miterlimit:4;stroke-dasharray:none;stroke-dashoffset:0;stroke-opacity:1;color-rendering:auto;image-rendering:auto;shape-rendering:auto;text-rendering:auto;enable-background:accumulate;stop-color:#000000"
       d="m 221.48438,90.82915 c -0.22132,0.133978 -0.30429,0.430366 -0.18242,0.651692 l 0.16672,0.302771 c 0.12187,0.221327 0.40816,0.294185 0.62949,0.160207 l 2.57101,-1.556367 c 0.22133,-0.133983 0.30429,-0.430365 0.18241,-0.651692 l -0.16672,-0.302771 c -0.12187,-0.221326 -0.40815,-0.29419 -0.62948,-0.160207 z m 0.22353,0.40595 2.57102,-1.556368 0.16671,0.302771 -2.57101,1.556368 z"
       id="rect4563-7-1-7" />
    <path
       style="color:#000000;font-style:normal;font-variant:normal;font-weight:normal;font-stretch:normal;font-size:medium;line-height:normal;font-family:sans-serif;font-variant-ligatures:normal;font-variant-position:normal;font-variant-caps:normal;font-variant-numeric:normal;font-variant-alternates:normal;font-variant-east-asian:normal;font-feature-settings:normal;font-variation-settings:normal;text-indent:0;text-align:start;text-decoration:none;text-decoration-line:none;text-decoration-style:solid;text-decoration-color:#000000;letter-spacing:normal;word-spacing:normal;text-transform:none;writing-mode:lr-tb;direction:ltr;text-orientation:mixed;dominant-baseline:auto;baseline-shift:baseline;text-anchor:start;white-space:normal;shape-padding:0;shape-margin:0;inline-size:0;clip-rule:nonzero;display:inline;overflow:visible;visibility:visible;isolation:auto;mix-blend-mode:normal;color-interpolation:sRGB;color-interpolation-filters:linearRGB;solid-color:#000000;solid-opacity:1;vector-effect:none;fill:#000000;fill-opacity:1;fill-rule:nonzero;stroke:none;stroke-width:0.469559;stroke-linecap:round;stroke-linejoin:round;stroke-miterlimit:4;stroke-dasharray:none;stroke-dashoffset:0;stroke-opacity:1;color-rendering:auto;image-rendering:auto;shape-rendering:auto;text-rendering:auto;enable-background:accumulate;stop-color:#000000"
       d="m 222.70683,91.034098 a 0.22930654,0.24043117 29.986089 0 0 -0.0884,0.330917 c 0,0 0.437,0.7521 1.03482,1.457443 0.25898,0.305497 0.78905,0.724406 0.78905,0.724406 a 0.22930654,0.24043117 29.986089 0 0 0.38136,-0.188005 c 0,0 0.022,-0.499158 -0.17507,-1.141185 -0.20022,-0.652206 -0.71497,-1.646554 -0.71497,-1.646554 a 0.22930654,0.24043117 29.986089 0 0 -0.32016,-0.08584 z m 0.45019,0.268743 0.45839,-0.277486 c 0.10895,0.218829 0.44054,0.869459 0.58834,1.351086 0.0637,0.207238 0.0339,0.203318 0.0563,0.356103 -0.11203,-0.101738 -0.18635,-0.15389 -0.25044,-0.229536 -0.4873,-0.574955 -0.75569,-1.039391 -0.85256,-1.200167 z"
       id="path4595-0" />
  </g>
</svg>
